PathFileType	4	(X/Y/Z)	Patient4_TMGait_0pt3_02_right_24.trc.trc
DataRate	CameraRate	NumFrames	NumMarkers	Units	OrigDataRate	OrigDataStartFrame	OrigNumFrames
51.282051282051	51.282051282051	5	33	mm	51.282051282051	124	       141
Frame#	Time	Sacral			L.Shoulder			Chest			R.Shoulder			Neck			R.ASIS			L.ASIS			R.Thigh.Superior			R.Thigh.Lateral			R.Thigh.Inferior			R.Patella			L.Thigh.Superior			L.Thigh.Lateral			L.Thigh.Inferior			L.Patella			L.Shank.Superior			L.Shank.Lateral			L.Shank.Inferior			R.Shank.Superior			R.Shank.Lateral			R.Shank.Inferior			R.Heel			R.Midfoot.Superior			R.Midfoot.Lateral			R.Toe			L.Heel			L.Midfoot.Lateral			L.Midfoot.Superior			L.Toe			L.Elbow			L.Wrist			R.Elbow			R.Wrist			
		X1	Y1	Z1	X2	Y2	Z2	X3	Y3	Z3	X4	Y4	Z4	X5	Y5	Z5	X6	Y6	Z6	X7	Y7	Z7	X8	Y8	Z8	X9	Y9	Z9	X10	Y10	Z10	X11	Y11	Z11	X12	Y12	Z12	X13	Y13	Z13	X14	Y14	Z14	X15	Y15	Z15	X16	Y16	Z16	X17	Y17	Z17	X18	Y18	Z18	X19	Y19	Z19	X20	Y20	Z20	X21	Y21	Z21	X22	Y22	Z22	X23	Y23	Z23	X24	Y24	Z24	X25	Y25	Z25	X26	Y26	Z26	X27	Y27	Z27	X28	Y28	Z28	X29	Y29	Z29	X30	Y30	Z30	X31	Y31	Z31	X32	Y32	Z32	X33	Y33	Z33	

124	48.498500000000	762.117012460939	996.920210243244	403.340326914783	977.077738547274	1429.676020886561	267.574619155407	1036.353102476976	1358.290077856487	447.208765948325	916.491804035155	1430.465832065919	598.361145254320	927.027678770052	1490.968955284561	419.375784442201	969.702686664363	937.806655645173	562.507951948501	1002.216046349129	955.960022468917	287.605592599344	1042.744035780650	753.275890201215	540.100013639673	979.596121400381	635.847472880192	603.299221533944	1071.033887195095	593.429858048678	529.667753896185	1091.674939329444	508.561885452247	544.834688566696	1013.217276322081	729.683846504445	324.250914263385	912.042601693734	622.709235492381	255.054411552527	970.915232422157	537.559933191867	329.908338931403	957.667749297305	469.008033170175	340.846139677626	922.361006798058	400.763805615867	332.123037819676	822.452844875902	297.208269450295	276.307411606821	847.800519891037	183.957781586348	356.161344614849	1068.851067642438	418.703898569910	557.002877997731	1003.413696320440	313.147012616580	623.646214137328	1062.385298302838	218.966586462920	572.956527886190	950.072972236150	41.059790319214	552.793271379214	1117.763050013795	107.541568906683	586.806358738921	1036.177229257513	37.321095872809	623.281758170545	1239.931990340108	65.784843414055	608.415987775850	700.934502764663	38.509504820836	394.822194664423	776.895476554698	35.019729031318	316.250822987407	860.647254013596	94.923588785165	346.396082407530	988.844718777952	42.640858230877	320.061475022434	1130.791384111511	1140.768531155475	118.649386616320	1385.096842638601	1095.961737980468	158.460426497794	741.422433390878	1128.984612901026	675.753183684411	692.221373568181	872.005911644152	676.793720300797	
125	48.518000000000	764.130164780472	996.118925807707	406.614365333752	979.336329059779	1428.760393836579	272.083014787341	1037.998284437236	1357.449249588685	451.901893683569	917.763980585579	1429.687960864060	602.750422248775	928.681688895162	1490.098213437893	423.756117676128	971.181570347451	936.624344951078	566.489598472646	1004.620873482492	955.078814818499	291.765300592379	1043.843655630726	751.566595654118	543.423507044441	979.403761366220	634.060399128962	605.251776410786	1071.099867883127	591.737472272770	531.949192855233	1090.455712492621	506.517362090131	546.287633713163	1013.869560850007	728.261018132436	327.315113980627	911.373891051366	622.472552765273	257.566204609303	969.186983136841	536.469136425973	332.079718608300	955.225679428449	467.922575302472	342.755895880869	919.383889313343	400.110112171733	333.707236932007	818.490636339330	297.702467591448	277.289336555631	842.869299253731	183.791686256254	356.552553529825	1067.577936877866	416.476440575949	558.132342524502	1001.881446210358	311.105852096235	624.552802441660	1059.679029464977	216.819718303072	573.002693023491	945.274488580900	41.236593374191	552.590507969690	1113.902164270526	104.934122715936	586.111116703754	1031.137264018016	36.888577068173	623.365320758451	1235.515147234235	61.266229864764	608.295403250467	695.121623981760	38.741087952711	394.683637743048	771.152849576524	35.087412147563	316.238713207421	854.985626390096	94.922204278824	346.402926500015	983.130392318771	42.300732441694	320.073820901647	1134.685264208403	1141.772986279142	122.163701648041	1390.483130640542	1106.477543425733	161.005068450453	741.462055494806	1128.811338095411	677.596478113459	688.300651775328	872.434414931290	676.897066008163	
126	48.537500000000	766.220296929278	995.584013086839	410.247890291493	981.704045118719	1427.998764924358	276.635170517768	1039.865113379690	1356.782356031592	456.621233404994	919.352178674702	1429.116904302339	607.220489603284	930.492206725384	1489.419425538257	428.191455451484	972.875174953636	935.725491475674	570.704980832605	1007.002747467630	954.299379657800	296.155671415311	1045.310748786179	750.313733281302	546.704551351803	979.857940800094	632.674880100660	607.301469787234	1071.678927967028	590.438310165923	534.211725741091	1089.893717839750	504.681898853847	547.780540895674	1014.596038042620	726.959044659515	330.531363462243	910.829039111685	622.346869174342	260.328072986274	967.757569011430	535.503682314702	334.414500634840	953.161514296153	466.925673270821	344.806213558258	916.680223148903	399.568838405243	335.425806032544	814.689638940966	298.431057330280	278.413489363006	838.083591990162	183.772550868821	356.957709322787	1066.632575450103	414.467084028901	559.204577547215	1000.406311363102	309.463390791592	625.454386003930	1056.557617912627	214.881990164550	572.916676779240	939.460683288231	41.645783228123	552.310047952049	1109.079400115016	102.596820185132	585.298453211043	1025.107751174764	36.708081842209	623.377456761553	1230.174415663917	56.962781093802	608.095638260091	689.350888090529	39.199608844778	394.494100858576	765.470257279080	35.275588638306	316.214279222562	849.430127945078	94.981290270569	346.371007286333	977.470253408500	41.890097749481	320.069056681804	1138.288747437090	1142.620276246329	125.808642844408	1395.209281522971	1116.258411383690	163.561854032442	742.495690198326	1128.397790372734	680.003724205422	686.202556529399	872.503841877430	677.852397699631	
127	48.557000000000	768.346381730399	995.386504872874	414.228812576496	984.184363464225	1427.449165965903	281.193685223893	1041.942526830165	1356.341738288989	461.333139603631	921.240473914739	1428.831601702797	611.719714394968	932.463993236905	1488.992509934731	432.634128780136	974.739693131996	935.163841095153	575.121226618891	1009.302795464248	953.679025903946	300.730001651138	1047.010542831662	749.519026856441	549.977590197575	980.792327611552	631.717219165226	609.533788087560	1072.581282480815	589.524381514788	536.526319815726	1089.800445924728	503.119530952845	549.392518028737	1015.276280791937	725.837732195008	333.869572318963	910.284016258145	622.405086907999	263.285962460744	966.501605500547	534.722632942312	336.843548601617	951.343177985558	466.085913677625	346.917870304327	914.145410178204	399.212570720448	337.208042778641	810.972513385267	299.437865364145	279.643504438139	833.422029323241	183.959175816743	357.345083653046	1065.915868156425	412.750787508460	560.299430736910	998.995423243047	308.210010296540	626.408938217891	1053.191388597403	213.223320250583	572.791494503370	933.101950799676	42.163566532238	552.023483509300	1103.659502101061	100.658989700290	584.490403432013	1018.573678376086	36.716485773013	623.358533856549	1224.319693160680	53.159321059758	607.871975814837	683.626678881609	39.962429697159	394.251943320285	759.844424808451	35.626995257711	316.170775696681	843.991396215634	95.119294427076	346.284805946729	971.852428890889	41.417704149321	320.044873644217	1141.644138457944	1143.378204105920	129.562259779479	1399.356461653947	1125.210149640852	166.168604754535	744.341847697098	1127.937127506472	683.000192046417	685.821674396211	872.380391450636	679.778663266255	
128	48.576500000000	770.471519894641	995.558208177488	418.550898643068	986.745748869058	1427.142122006326	285.724950139297	1044.202701972046	1356.157699091741	466.002351790192	923.405246553962	1428.878514641977	616.206980194431	934.583369099039	1488.849976055043	437.044483922669	976.736334268817	934.954302478069	579.699182510027	1011.468436325407	953.258288811928	305.439192040271	1048.792034284420	749.121722297104	553.288433144077	981.979895166626	631.157552334497	612.008383941579	1073.581191679404	588.936401085550	538.958878244498	1089.925796734484	501.842650059381	551.181851217352	1015.822825215974	724.948548427135	337.294690924169	909.650063377640	622.703750826169	266.385484749149	965.330003661408	534.173091900688	339.299683005908	949.677415727933	465.455849986278	349.013450107988	911.705606813279	399.096615765120	338.986778436157	807.284658148074	300.758306747698	280.943656609635	828.871036640677	184.400410643406	357.684729966039	1065.264322562671	411.354546950004	561.483398093660	997.568218202695	307.302083268861	627.444568183929	1049.669435372615	211.875531128533	572.704161610016	926.548029812576	42.703636109048	551.776218686941	1097.922132565176	99.179505833975	583.781753365593	1011.887879437762	36.855909183397	623.335938300846	1218.247996588915	50.004428741186	607.675905334414	677.953154180362	41.109958204260	393.961329525722	754.266528435093	36.186289955734	316.103243863050	838.676681884030	95.352876414251	346.130752709542	966.256570277793	40.896256188241	320.000810748727	1144.767785983465	1144.086092247697	133.414637137231	1402.988631217242	1133.210957364782	168.867835690864	746.859996407825	1127.570066914740	686.596601519528	687.052945173862	872.188385972167	682.758744736125	
